<svg width="229" height="56" viewBox="0 0 229 56" fill="none" xmlns="http://www.w3.org/2000/svg">
<rect width="229" height="56" fill="#0D0D0D"/>
<path d="M12.3311 7.12988L13.1396 9.69043C11.7321 10.2445 10.7663 11.2402 10.2422 12.6777C9.7181 14.1003 9.45605 15.7324 9.45605 17.5742V22.2236C9.45605 23.721 9.18652 25.0837 8.64746 26.3115C8.12337 27.5244 7.28483 28.4902 6.13184 29.209C4.97884 29.9277 3.47396 30.2871 1.61719 30.2871V27.5469C2.99479 27.5469 3.98307 27.0677 4.58203 26.1094C5.19596 25.151 5.50293 23.8558 5.50293 22.2236V17.5742C5.50293 16.002 5.70508 14.5345 6.10938 13.1719C6.52865 11.7943 7.23242 10.5889 8.2207 9.55566C9.22396 8.50749 10.5941 7.69889 12.3311 7.12988ZM13.1396 48.6377L12.3311 51.2207C10.5941 50.6367 9.22396 49.8281 8.2207 48.7949C7.23242 47.7617 6.52865 46.5563 6.10938 45.1787C5.70508 43.8161 5.50293 42.3486 5.50293 40.7764V36.1494C5.50293 35.0563 5.36816 34.113 5.09863 33.3193C4.8291 32.5257 4.40983 31.9118 3.84082 31.4775C3.27181 31.0283 2.5306 30.8037 1.61719 30.8037V28.0635C3.47396 28.0635 4.97884 28.4229 6.13184 29.1416C7.28483 29.8604 8.12337 30.8337 8.64746 32.0615C9.18652 33.2744 9.45605 34.637 9.45605 36.1494V40.7764C9.45605 42.0042 9.56087 43.1423 9.77051 44.1904C9.99512 45.2386 10.377 46.1445 10.916 46.9082C11.4551 47.6868 12.1963 48.2633 13.1396 48.6377ZM17.3398 40.7988C17.3398 40.0951 17.557 39.5036 17.9912 39.0244C18.4404 38.5303 19.0843 38.2832 19.9229 38.2832C20.7614 38.2832 21.3978 38.5303 21.832 39.0244C22.2812 39.5036 22.5059 40.0951 22.5059 40.7988C22.5059 41.4876 22.2812 42.0716 21.832 42.5508C21.3978 43.0299 20.7614 43.2695 19.9229 43.2695C19.0843 43.2695 18.4404 43.0299 17.9912 42.5508C17.557 42.0716 17.3398 41.4876 17.3398 40.7988ZM29.4688 40.7988C29.4688 40.0951 29.6859 39.5036 30.1201 39.0244C30.5693 38.5303 31.2132 38.2832 32.0518 38.2832C32.8903 38.2832 33.5267 38.5303 33.9609 39.0244C34.4102 39.5036 34.6348 40.0951 34.6348 40.7988C34.6348 41.4876 34.4102 42.0716 33.9609 42.5508C33.5267 43.0299 32.8903 43.2695 32.0518 43.2695C31.2132 43.2695 30.5693 43.0299 30.1201 42.5508C29.6859 42.0716 29.4688 41.4876 29.4688 40.7988ZM41.5977 40.7988C41.5977 40.0951 41.8148 39.5036 42.249 39.0244C42.6982 38.5303 43.3421 38.2832 44.1807 38.2832C45.0192 38.2832 45.6556 38.5303 46.0898 39.0244C46.5391 39.5036 46.7637 40.0951 46.7637 40.7988C46.7637 41.4876 46.5391 42.0716 46.0898 42.5508C45.6556 43.0299 45.0192 43.2695 44.1807 43.2695C43.3421 43.2695 42.6982 43.0299 42.249 42.5508C41.8148 42.0716 41.5977 41.4876 41.5977 40.7988ZM57.4551 23.8857V43H53.4795V18.6973H57.2305L57.4551 23.8857ZM56.4893 29.9277L54.8721 29.8604C54.8571 28.1982 55.0443 26.6634 55.4336 25.2559C55.8379 23.8333 56.4069 22.598 57.1406 21.5498C57.8893 20.5016 58.7803 19.693 59.8135 19.124C60.8467 18.54 61.9922 18.248 63.25 18.248C64.2383 18.248 65.1367 18.4128 65.9453 18.7422C66.7539 19.0566 67.4427 19.5658 68.0117 20.2695C68.5807 20.9733 69.015 21.8867 69.3145 23.0098C69.6289 24.1178 69.7861 25.473 69.7861 27.0752V43H65.8105V27.0303C65.8105 25.7575 65.6683 24.7393 65.3838 23.9756C65.1143 23.1969 64.695 22.6354 64.126 22.291C63.5719 21.9316 62.8682 21.752 62.0146 21.752C61.236 21.752 60.5098 21.9691 59.8359 22.4033C59.1621 22.8376 58.5706 23.4365 58.0615 24.2002C57.5674 24.9639 57.1781 25.8398 56.8936 26.8281C56.624 27.8014 56.4893 28.8346 56.4893 29.9277ZM80.0283 18.6973V43H76.0752V18.6973H80.0283ZM75.8506 12.251C75.8506 11.5771 76.0378 11.0081 76.4121 10.5439C76.7865 10.0798 77.348 9.84766 78.0967 9.84766C78.8454 9.84766 79.4069 10.0798 79.7812 10.5439C80.1706 11.0081 80.3652 11.5771 80.3652 12.251C80.3652 12.8949 80.1706 13.4489 79.7812 13.9131C79.4069 14.3623 78.8454 14.5869 78.0967 14.5869C77.348 14.5869 76.7865 14.3623 76.4121 13.9131C76.0378 13.4489 75.8506 12.8949 75.8506 12.251ZM94.7402 40.0576C95.5339 40.0576 96.2526 39.9004 96.8965 39.5859C97.5553 39.2565 98.0944 38.7474 98.5137 38.0586C98.9329 37.3548 99.1725 36.4414 99.2324 35.3184H102.961C102.901 36.9355 102.489 38.3581 101.726 39.5859C100.977 40.7988 99.9886 41.7497 98.7607 42.4385C97.5479 43.1123 96.2077 43.4492 94.7402 43.4492C93.168 43.4492 91.7979 43.1947 90.6299 42.6855C89.4769 42.1764 88.5186 41.4427 87.7549 40.4844C87.0062 39.5111 86.4447 38.3356 86.0703 36.958C85.696 35.5654 85.5088 33.9857 85.5088 32.2188V29.4785C85.5088 27.7116 85.696 26.1393 86.0703 24.7617C86.4447 23.3691 87.0062 22.1937 87.7549 21.2354C88.5186 20.262 89.4769 19.5208 90.6299 19.0117C91.7979 18.5026 93.168 18.248 94.7402 18.248C96.3874 18.248 97.8099 18.5999 99.0078 19.3037C100.221 19.9925 101.164 20.9958 101.838 22.3135C102.527 23.6162 102.901 25.196 102.961 27.0527H99.2324C99.1725 25.8548 98.9554 24.859 98.5811 24.0654C98.2067 23.2568 97.6976 22.6579 97.0537 22.2686C96.4098 21.8643 95.6387 21.6621 94.7402 21.6621C93.6921 21.6621 92.8236 21.8493 92.1348 22.2236C91.4609 22.583 90.9294 23.1071 90.54 23.7959C90.1507 24.4847 89.8737 25.3083 89.709 26.2666C89.5592 27.2249 89.4844 28.2956 89.4844 29.4785V32.2188C89.4844 33.4017 89.5592 34.4798 89.709 35.4531C89.8737 36.4115 90.1432 37.235 90.5176 37.9238C90.9069 38.6126 91.446 39.1442 92.1348 39.5186C92.8236 39.8779 93.6921 40.0576 94.7402 40.0576ZM106.734 32.0166V29.7031C106.734 27.8164 106.974 26.1618 107.453 24.7393C107.932 23.3018 108.599 22.1038 109.452 21.1455C110.306 20.1872 111.301 19.4684 112.439 18.9893C113.577 18.4951 114.798 18.248 116.101 18.248C117.433 18.248 118.669 18.4951 119.807 18.9893C120.945 19.4684 121.94 20.1872 122.794 21.1455C123.662 22.1038 124.336 23.3018 124.815 24.7393C125.295 26.1618 125.534 27.8164 125.534 29.7031V32.0166C125.534 33.9033 125.295 35.5654 124.815 37.0029C124.336 38.4255 123.67 39.6159 122.816 40.5742C121.963 41.5326 120.967 42.2513 119.829 42.7305C118.691 43.2096 117.463 43.4492 116.146 43.4492C114.828 43.4492 113.6 43.2096 112.462 42.7305C111.324 42.2513 110.321 41.5326 109.452 40.5742C108.599 39.6159 107.932 38.4255 107.453 37.0029C106.974 35.5654 106.734 33.9033 106.734 32.0166ZM110.71 29.7031V32.0166C110.71 33.3493 110.845 34.5173 111.114 35.5205C111.384 36.5238 111.766 37.3623 112.26 38.0361C112.754 38.71 113.33 39.2191 113.989 39.5635C114.648 39.8929 115.367 40.0576 116.146 40.0576C117.044 40.0576 117.83 39.8929 118.504 39.5635C119.193 39.2191 119.762 38.71 120.211 38.0361C120.66 37.3623 120.997 36.5238 121.222 35.5205C121.446 34.5173 121.559 33.3493 121.559 32.0166V29.7031C121.559 28.3704 121.424 27.21 121.154 26.2217C120.885 25.2184 120.503 24.3799 120.009 23.7061C119.515 23.0173 118.931 22.5081 118.257 22.1787C117.598 21.8343 116.879 21.6621 116.101 21.6621C115.337 21.6621 114.626 21.8343 113.967 22.1787C113.308 22.5081 112.731 23.0173 112.237 23.7061C111.758 24.3799 111.384 25.2184 111.114 26.2217C110.845 27.21 110.71 28.3704 110.71 29.7031ZM145.749 43V46.4141H128.229V43H145.749ZM162.033 38.2832V8.5H165.986V43H162.37L162.033 38.2832ZM148.444 32.0166V29.748C148.444 27.7415 148.639 26.0195 149.028 24.582C149.418 23.1296 149.972 21.9391 150.69 21.0107C151.409 20.0674 152.27 19.3711 153.273 18.9219C154.277 18.4727 155.385 18.248 156.598 18.248C157.855 18.248 158.934 18.5026 159.832 19.0117C160.745 19.5208 161.509 20.262 162.123 21.2354C162.737 22.1937 163.216 23.3617 163.561 24.7393C163.92 26.1019 164.16 27.6442 164.279 29.3662V32.3984C164.145 34.1055 163.897 35.6403 163.538 37.0029C163.194 38.3656 162.715 39.526 162.101 40.4844C161.487 41.4427 160.723 42.1764 159.81 42.6855C158.896 43.1947 157.811 43.4492 156.553 43.4492C155.355 43.4492 154.262 43.2171 153.273 42.7529C152.285 42.2738 151.424 41.5625 150.69 40.6191C149.972 39.6608 149.418 38.4704 149.028 37.0479C148.639 35.6104 148.444 33.9333 148.444 32.0166ZM152.42 29.748V32.0166C152.42 33.3643 152.517 34.5397 152.712 35.543C152.907 36.5312 153.214 37.3548 153.633 38.0137C154.052 38.6576 154.584 39.1367 155.228 39.4512C155.886 39.7656 156.673 39.9229 157.586 39.9229C158.694 39.9229 159.6 39.6533 160.304 39.1143C161.007 38.5752 161.569 37.8639 161.988 36.9805C162.423 36.082 162.767 35.1162 163.021 34.083V27.7041C162.872 26.9404 162.655 26.2067 162.37 25.5029C162.086 24.7842 161.726 24.1478 161.292 23.5938C160.873 23.0247 160.356 22.5755 159.742 22.2461C159.143 21.9167 158.439 21.752 157.631 21.752C156.717 21.752 155.924 21.9167 155.25 22.2461C154.591 22.5755 154.052 23.0697 153.633 23.7285C153.229 24.3874 152.922 25.2184 152.712 26.2217C152.517 27.2249 152.42 28.4004 152.42 29.748ZM180.811 43.4492C179.358 43.4492 178.048 43.2321 176.88 42.7979C175.712 42.3636 174.716 41.7048 173.893 40.8213C173.069 39.9229 172.44 38.7923 172.006 37.4297C171.572 36.0671 171.354 34.4574 171.354 32.6006V29.8604C171.354 27.7191 171.602 25.9072 172.096 24.4248C172.605 22.9424 173.286 21.752 174.14 20.8535C174.993 19.9401 175.959 19.2812 177.037 18.877C178.115 18.4577 179.223 18.248 180.361 18.248C181.889 18.248 183.191 18.4951 184.27 18.9893C185.348 19.4834 186.224 20.2171 186.897 21.1904C187.571 22.1637 188.065 23.3617 188.38 24.7842C188.709 26.2067 188.874 27.8464 188.874 29.7031V32.0166H173.69V28.625H184.898V28.0635C184.839 26.8057 184.666 25.6976 184.382 24.7393C184.112 23.7809 183.663 23.0322 183.034 22.4932C182.405 21.9391 181.514 21.6621 180.361 21.6621C179.628 21.6621 178.946 21.7894 178.317 22.0439C177.703 22.2835 177.172 22.7103 176.723 23.3242C176.288 23.9232 175.944 24.7542 175.689 25.8174C175.45 26.8805 175.33 28.2282 175.33 29.8604V32.6006C175.33 33.9033 175.45 35.0264 175.689 35.9697C175.944 36.8981 176.311 37.6693 176.79 38.2832C177.284 38.8822 177.883 39.3314 178.587 39.6309C179.306 39.9154 180.122 40.0576 181.035 40.0576C182.368 40.0576 183.468 39.8031 184.337 39.2939C185.205 38.7699 185.962 38.1035 186.605 37.2949L188.694 39.7881C188.26 40.402 187.691 40.9935 186.987 41.5625C186.299 42.1165 185.445 42.5732 184.427 42.9326C183.424 43.277 182.218 43.4492 180.811 43.4492ZM199.655 39.249L204.866 18.6973H208.909L201.699 43H199.071L199.655 39.249ZM195.455 18.6973L200.891 39.3613L201.317 43H198.712L191.412 18.6973H195.455Z" fill="white"/>
</svg>
